<?xml version="1.0" encoding="UTF-8"?>
<svg version="1.1" viewBox="0 0 2048 2048" width="640" height="640" xmlns="http://www.w3.org/2000/svg">
<path transform="translate(0)" d="m0 0h2048v2048h-2048z"/>
<path transform="translate(0)" d="m0 0h2048v1042l-17-4-102-26-136-35-109-28-69-18-55-14-125-32-207-53-16-4 5 10 6 10 5 8 6 11 3 6v2h2l3 6 2 6h2l3 6 9 15 6 11 2 6h2l2 4v3h2l2 3v3h2l1 4 2 1 2 6 2 1 8 16 1 3h2l2 7h2l1 4 2 1 4 10 5 8 8 13 6 11 8 14 11 19 4 7v2l-515 1h-124l2-4 14-25 12-21 14-25 24-42 14-25 6-9 3-6 6-10 4-8 6-11 4-6 6-11 5-9 8-14 6-11 3-4 2-5 3-4 3-7h2l1-6 2-3h2l1-4 1-3h2l1-4 1-3h2l1-6 4-4 1-5-15 3-856 216h-3z"/>
<path transform="translate(1024,508)" d="m0 0 3 1 11 20 4 7 2 1 3 7 14 24v2h2l2 6 2 1 4 10 8 13 6 11 7 11 3 6 6 10 10 18 6 9 6 11 8 13 6 11 1 5 26 3 264 41 175 27 227 35 213 33 5 1v197l-17-4-102-26-136-35-109-28-69-18-55-14-125-32-207-53-16-4 5 10 6 10 5 8 6 11 3 6v2h2l3 6 2 6h2l3 6 9 15 6 11 2 6h2l2 4v3h2l2 3v3h2l1 4 2 1 2 6 2 1 8 16 1 3h2l2 7h2l1 4 2 1 4 10 5 8 8 13 6 11 8 14 11 19 4 7v2l-515 1h-124l2-4 14-25 12-21 14-25 24-42 14-25 6-9 3-6 6-10 4-8 6-11 4-6 6-11 5-9 8-14 6-11 3-4 2-5 3-4 3-7h2l1-6 2-3h2l1-4 1-3h2l1-4 1-3h2l1-6 4-4 1-5-15 3-856 216h-3v-8l21-6 98-25 64-16 66-17 60-15 35-9 39-10 138-35 64-16 15-4 48-12 15-4 185-47 36-9 2-6h2l1-4 12-22 4-7 5-9 6-10 6-11 11-19 6-11 6-10 5-9 7-13 3-5 7-12 13-23 15-27 20-35z" fill="#44616C"/>
<path transform="translate(1022,566)" d="m0 0h8l8 6 9 15 8 14 9 14 4 8 9 15 1 3h2l9 14 7 10 5 9 12 20 4 6 1 4h2l-1 3-8 3 1 5 2 4h2l1 5h2v4l3 1 7 11 5 7v3h2l6 12 1 4h2l6 12 12 16 7 14 2 7v4l12 3 9 4 3 5 8 16 9 16 9 14 8 13 10 17 7 15 7 12 4 7 8 16 9 19 8 15 9 19 5 10 4 13-2 10-5 5-7 4-13 2h-28l-32 1-14-1h-128l-17 1h-17l-21 1-39 1-54-1h-38l-13-1-83-2-23-3-10-5v-2h-2l-3-7v-6l7-17h2l1-5 9-15 16-32 6-11 8-14 3-6 16-28 6-11 7-14 5-8 10-18 6-10 6-11 3-7h2l3-9 6-11 12-19 7-11h9l64 11 18 2-3-1v-2h-2l-3-9v-21l-1-1v-9l1-2h2v-2l-10 1-54 11h-9l8-16 9-17 8-12 4-7 8-13 9-17 7-12 12-21 10-16 9-15 4-7h2l2-5 7-11 8-9h2l1-3z"/>
<path transform="translate(1127,685)" d="m0 0 4 4 6 11 1 5 26 3 264 41 175 27 227 35 213 33 5 1v99l-8-1-58-12-169-35-52-11-69-14-197-41-57-12-73-15-87-18-96-20-8-1 14 24 15 26 6 10v3l-4-2-7-3-9-15-3-8v-3h-2l-7-13-8-12-1-3h-2l-11-21-7-10-2-6h-2l-11-16-4-9 5-3-2-7-5-9z" fill="#F17C07"/>
<path transform="translate(1022,566)" d="m0 0h8l8 6 9 15 8 14 9 14 4 8 9 15 1 3h2l9 14 7 10 5 9 12 20 4 6 1 4h2l-1 3-8 3 1 5 2 4h2l1 5h2v4l3 1 7 11 5 7v3h2l6 12 1 4h2l6 12 12 16 7 14 2 7v4l12 3 9 4 3 5 8 16 9 16 9 14 8 13 10 17 7 15 7 12 4 7 8 16 9 19 8 15 9 19 5 10 4 13-2 10-5 5-7 4-13 2h-28l-32 1-14-1h-128l-17 1h-17l-21 1-39 1-54-1h-38l-13-1-83-2-23-3-10-5v-2h-2l-3-7v-6l7-17h2l1-5 9-15 16-32 6-11 8-14 3-6 16-28 6-11 7-14 5-8 10-18 6-10 6-11 3-7h2l3-9 6-11 12-19 7-11h9l18 3v1l-6 1-5 14-6 8-3 6-8 14-7 13h-2l-1 5-6 12-9 17-6 11-3 5-9 16-5 10-2 5-4 7-8 15-6 12-5 9-9 20-4 8-4 10-5 10-1 3v7l4 6 7 4 13 3 26 2 43 2 41 1h219l23 1 33-2 26-1 20-2 10-4 3-4v-7l-5-15-9-17-3-6-5-8-9-20-12-24-14-22-9-15-14-23-4-7v-3h-2l-1-5-3-1-9-13-3-7-1-8-19-4-21-3-56-10-48-8v-2l-14-1-10-1-2-2-21-2-3-2h8l9 1-3-1v-2h-2l-3-9v-21l-1-1v-9l1-2h2v-2l-10 1-54 11h-9l8-16 9-17 8-12 4-7 8-13 9-17 7-12 12-21 10-16 9-15 4-7h2l2-5 7-11 8-9h2l1-3z" fill="#092933"/>
<path transform="translate(1024,508)" d="m0 0 3 1 11 20 4 7 2 1 3 7 14 24v2h2l2 6 2 1 4 10 8 13 6 11 7 11 3 6 6 10 10 18 6 9 6 11 4 7 4 10 4 8-1 3-4 2 6 12 8 11v2h2l8 14 6 9 6 12v2h2l10 15 6 11v2h2l5 13 7 11v2l7 2 4 3 1-3 2 6 9 14 5 9 9 16 2 6h2l3 6 2 6h2l3 6 9 15 6 11 2 6h2l2 4v3h2l2 3v3h2l1 4 2 1 2 6 2 1 8 16 1 3h2l2 7h2l1 4 2 1 4 10 5 8 8 13 6 11 8 14 11 19 4 7v2l-515 1h-124l2-4 14-25 12-21 14-25 24-42 14-25 6-9 3-6 6-10 4-8 6-11 4-6 6-11 5-9 8-14 6-11 3-4 2-5 3-4 3-7h2l1-6 2-3h2l1-4 1-3h2l1-4 1-3h2l1-6 4-4 1-5-15 3-856 216h-3v-8l21-6 98-25 64-16 66-17 60-15 35-9 39-10 138-35 64-16 15-4 48-12 15-4 185-47 36-9 2-6h2l1-4 12-22 4-7 5-9 6-10 6-11 11-19 6-11 6-10 5-9 7-13 3-5 7-12 13-23 15-27 20-35zm-2 58-7 4-1 3-4 2-7 8-6 10-2 5h-2l-11 19-8 13-6 10-20 34-7 14-9 14-7 12-8 13-8 17-4 7h9l60-12h4v2h-2l-1 2v9l1 4v18l3 9h2v2l3 1-23-3-59-10h-9l-10 16-9 14-8 16-1 4h-2l-7 14-6 10-6 11-10 18-5 8-7 14-12 22-6 10-8 15-5 9-6 11-13 25-6 11-5 9v3h-2l-7 17v7l3 6h2l1 3 9 4 24 3h12l31 1 40 1 20 1h42l43 1 38-1 31-1h13l16-1h130l11 1 33-1h25l11-2 10-6 3-6 1-8-6-16-4-9-8-16-9-17-11-23-5-10-4-7-8-13-7-15-7-12-5-9-7-11-8-13-15-27-3-7-4-3-16-5h-2l-1-10-4-6-5-10-6-8-7-10-4-9h-2l-1-4-6-12h-2l-1-4-12-18h-2v-4h-2l-1-5h-2l-2-4-1-5 9-4v-2h-2l-1-4-6-9-8-13-6-11-6-9-7-11-4-6h-2l-2-4-8-14-6-11-7-11-9-16-8-13-8-6z" fill="#44616D"/>
<path transform="translate(1127,685)" d="m0 0 4 4 6 11 3 6 4 6 4 7 9 16 3 6 9 2 49 9 76 15 38 7 145 28 43 8 68 13 70 13 284 54 99 19 7 2v33l-8-1-58-12-169-35-52-11-69-14-197-41-57-12-73-15-87-18-96-20-8-1 14 24 15 26 6 10v3l-4-2-7-3-9-15-3-8v-3h-2l-7-13-8-12-1-3h-2l-11-21-7-10-2-6h-2l-11-16-4-9 5-3-2-7-5-9z" fill="#FEE205"/>
<path transform="translate(1139,705)" d="m0 0 25 3 264 41 175 27 227 35 213 33 5 1v33l-37-6-163-28-45-8-99-17-340-59-144-25-62-11h-7v-2h-2l-5-7-4-8z" fill="#E70A1C"/>
<path transform="translate(1173,763)" d="m0 0 19 3 71 15 54 11 328 68 66 14 40 8 275 57 22 5v32l-171-38-171-38-152-34-62-14-37-8-260-58-10-2-12-20z" fill="#5CA439"/>
<path transform="translate(1186,784)" d="m0 0 9 1 73 16 35 8 121 27 62 14 37 8 148 33 175 39 197 44 5 2v31l-8-1-113-27-54-13-60-14-36-9-60-14-45-11-72-17-49-12-60-14-109-26-53-13-93-22-37-9-1 2-12-21z" fill="#00A3EC"/>
<path transform="translate(913,777)" d="m0 0h13l12 2v1h-15l1 7-3 7-9 17-12 22-12 24-8 15-3 6-4 6-8 14-14 30-15 34-4 11-3 16 1 14 3 5 12 4 15 3 22 2 58 2h148l60 1 24 1h11l25-3 20-2 11-3 3-4 1-9-3-9-7-11-9-15v-2h-2l-7-11-9-17-6-12-9-16-10-15-8-13-8-16-10-15-11-15-2-4-2-12-4-2 10 1 13 3 2 1 3 10 4 8 7 10 3 3v3h2l6 12 11 18 8 13 11 18 8 12 8 16 7 16 8 16 3 4 9 19 6 16v7l-4 5-10 4-20 2-31 1-29 2-26-1h-227l-34-1-56-3-18-3-9-4-5-6-1-2v-7l5-12 4-8 4-10 7-14 5-11 8-14 12-24 2-2 4-10 7-12 6-12 5-8 7-14 9-16 3-8h2l2-5 8-16 5-7 5-10 3-3 4-12z" fill="#06161C"/>
<path transform="translate(1022,566)" d="m0 0h8l8 6 9 15 8 14 9 14 4 8 9 15 1 3h2l9 14 7 10 5 9 12 20 4 6 1 4h2l-1 3-8 3 1 5 2 4h2l1 5h2v4l3 1 7 11 5 7v3h2l6 12 1 4h2l6 12 12 16 7 14 2 7v4l12 3 9 4 3 5 8 16 9 16 9 14 8 13 10 17 7 15 7 12 4 7 8 16 9 19 8 15 9 19 5 10 4 13-2 10-5 5-7 4-13 2h-28l-32 1-14-1h-128l-17 1h-17l-21 1-39 1-54-1h-38l-13-1-83-2-23-3-10-5v-2h-2l-3-7v-6l7-17h2l1-5 9-15 16-32 6-11 8-14 3-6 16-28 6-11 7-14 5-8 10-18 6-10 6-11 3-7h2l3-9 6-11 12-19 7-11h9l6 1v1h-11l-2 8-2 6h-2l-1 4-4 8-6 10-6 11-7 12-4 8-3 7-9 15-7 13-6 10-6 12-6 11-8 16-5 8-5 10h-2l-1 5-5 10h-2l-1 4-5 10-3 5-3 7-8 16-6 11-4 7-2 7 1 8 3 4 10 4 12 2h16l9 1h19l25 1 17 1h13l3 1h48l27 1 44-1h29l26-1h117l6-1h59l21-1 10-3 5-3 1-2h2v-12l-4-11-4-8-3-7v-3h-2l-6-14-3-4-2-5v-3h-2l-6-13-9-16-5-10-8-15-2-6h-2l-3-6-8-14-9-15-6-9v-3h-2l-5-10-7-11-5-9-3-9-16-4-12-4-4-5-3-7-8-9-4-9-6-10-2-9h-2l-6-10-3-3v-2h-2v-2l-4-2v-2h-2l-3-7-7-4-3-5-2-5-5-2-2-2v-5l5-3 18-5 2-2-7-8v-3h-2l-2-5-2-1-5-9-6-11v-3h-2l-20-30-6-10-1-3h-2l-1-5-2-1-5-9v-2h-2l-3-6-6-9v-2l-4-2-7-6v-2h-8l-2 4-7 9-5 5-7 10-3 6-7 10-4 8-7 11-5 9-7 12h-2l-2 6-5 7-12 22-8 13-5 10-11 19-3 6-4 3 1 2h-9l8-16 9-17 8-12 4-7 8-13 9-17 7-12 12-21 10-16 9-15 4-7h2l2-5 7-11 8-9h2l1-3z" fill="#375562"/>
<path transform="translate(915,703)" d="m0 0v3l-14 24-7 14-2 2-2 5-3 4 27-5 60-12h6l-2 1v2h-2v11l1 4v18l2 9h2v2l5 1v1l-11-1-26-4-54-9-7-1h-10l-2 1-1-3-872 220h-3v-8l21-6 98-25 64-16 66-17 60-15 35-9 39-10 138-35 64-16 15-4 48-12 15-4 185-47 36-9 2-6h2l1-4 12-22 4-7 5-9z" fill="#FEFEFE"/>
<path transform="translate(1024,508)" d="m0 0 3 1 11 20 4 7 2 1 3 7 14 24v2h2l2 6 2 1 4 10 8 13 6 11 7 11 3 6 6 10 10 18 6 9 6 11 4 7 4 10 4 8-1 3-4 2 6 12 8 11v2h2l8 14 6 9 6 12v2h2l10 15 6 11v2h2l5 13 7 11v2l7 2 4 3 1-3 2 6 9 14 5 9 9 16 2 6h2l3 6 2 6h2l3 6 9 15 6 11 2 6h2l2 4v3h2l2 3v3h2l1 4 2 1 2 6 2 1 8 16 1 3h2l2 7h2l1 4 2 1 4 10 5 8 8 13 6 11 8 14 11 19 4 7v2h-34l-26-1v-1l13-1v-2l4 1v-2l4-2 5-7 1-9-4-16-7-15-8-14-2-5-10-19-21-42v-3h-2l-2-6-2-4v-3h-2l-3-9-2-5-3-4v-2h-2l-3-6-3-5v-2h-2v-3l-2-1-1-5h-2l-6-11-2-7-6-9-3-3-2-7h-2l-1-5-4-2-16-6-4-9-4-7-5-9v-2h-2l-7-13-9-15-7-11-4-7-7-10-5-11-6-8-4-6-3-4v-3l5-3-3-8-5-7-5-9-6-9-4-7v-3h-2l-8-12-6-10-4-6-16-26-6-11-13-28-7-10-5-4-2-2-3-1h-11l-5 3h-2l-1 3-4 1-2 4-11 18-9 15-9 14h-2l-1 5-2 5h-2l-2 6-6 9-5 8-5 9-9 15-1 3h-2l-2 6-8 14-6 9-5 9-8 13-6 12-2 7-3 4-2 5-5 7-8 1 3-5 3-6 7-12 6-11 7-12 3-6-2 1 2-5 3-5 4-7 11-19 6-11 6-10 5-9 7-13 3-5 7-12 13-23 15-27 20-35z" fill="#05A3EB"/>
<path transform="translate(1055,721)" d="m0 0 7 1 13 4 1 1v7l-1 7 1 3-2 4 1 8 2 6v11l-3 14-3 5-5 8-4 1-59-9-10-1-2-2-21-2-3-2h8l9 1-3-1v-2h-2l-3-9v-21l-1-1v-9l1-2h2v-2h-7l2-2 71-14z" fill="#44606C"/>
<path transform="translate(1019,579)" d="m0 0h8v2l4 2 7 6 5 7 4 8v2h2l4 8 4 6v3h2l5 7 3 6 5 8 7 10 3 5 2 2 2 5h2l8 16 3 4v3l3 1 1 5h2l3 5 5 7-9 4-12 3-3-1 4-2-2-4-8-9-6-9-4-8-11-16-4-7-7-11-4-6v-2h-2l-6-8-13-10-7-2-6 3-12 11-12 20-4 5-3 6-7 11-3 5-8 14-3 5-8 14-10 19-3 5-3 4h-2l-1 3 4 2-19 4h-7l3-4h2l2-6 9-15 7-14 6-10 5-8 3-6 8-14 7-11 2-1 2-5 9-16 6-9 6-11 6-8 4-8 9-12h2l2-4z" fill="#0A2A34"/>
<path transform="translate(1018,656)" d="m0 0h8l6 4 10 12 8 11v2l4 2 6 11 10 11 7 4v2l-15 4-34 7h-5v2l-50 10-10 3-5 1h-12l3-2 8-7 7-14 5-9 7-11 8-11 4-6 10-12 7-8 8-5z"/>
<path transform="translate(1019,618)" d="m0 0 9 3 13 11 4 5v2h2l11 18 4 5 4 8 10 14 4 8 10 13 4 4-1 3-15 4-3-1h2v-2l-5-2-8-7-7-9-5-9-5-5-4-6-11-14-6-4h-8l-6 2-9 6-10 12-7 9-20 30-6 14-5 6h-2l-2 4-2 1 4 2-10 2h-12l4-4h2l2-4 3-5 10-19 8-14 7-12 1-3h2l2-6 9-14 6-10 5-8 9-14 8-8 7-5z" fill="#06161C"/>
<path transform="translate(1055,721)" d="m0 0 7 1 13 4 1 1v7l-1 7 1 3-2 4 1 8 2 6v11l-3 14-3 5-5 8-4 1-32-5 4-4v-16l-2-9-3-23-4-10-2-7z" fill="#385562"/>
<path transform="translate(875,769)" d="m0 0 2 2h1 10l-4 2-3 5-6 7-6 10-7 14-6 11-7 13-8 14-5 9-9 15-10 19-10 17-2 6h-2l-2 5-7 11-6 11-6 10-8 15-5 9-4 8-7 11-10 16-5 9-3 7-2 7-1 9 1 7 2 5h2l4 4 6 3 18 2 21 1-4 2h-78l2-5 13-23 12-21 14-25 24-42 14-25 6-9 3-6 6-10 4-8 6-11 4-6 6-11 5-9 8-14 6-11 3-4 2-5 3-4 3-7h2l1-6 2-3h2l1-4 1-3h2l1-4 1-3h2l1-6 4-4 1-5-3-1z" fill="#06A4EB"/>
<path transform="translate(1127,685)" d="m0 0 4 4 6 11 3 6 4 6 4 7 9 16 7 13 7 12v2h2l30 52 6 10v3l-4-2-7-3-9-15-3-8v-3h-2l-7-13-8-12-1-3h-2l-11-21-7-10-2-6h-2l-11-16-4-9 5-3-2-7-5-9z" fill="#FFFEFE"/>
<path transform="translate(994,734)" d="m0 0v3l-1 10h2l3 21v10l3 9 2 3-12-1-21-2-3-2h8l9 1-3-1v-2h-2l-3-9v-21l-1-1v-9l1-2h2v-2h-7l2-2 10-2z" fill="#01A0E8"/>
<path transform="translate(1024,508)" d="m0 0 3 1 11 20 4 7-1 2-1-3-8-1-10-1-7 3h-3l-1 4-1 2h-2l-2 5-7 11-4 8-6 10-5 10-4 7-8 13-6 11-7 11h-2l9-18 3-5 16-28 14-25 11-19 12-22z" fill="#F7FCFE"/>
<path transform="translate(803,899)" d="m0 0 1 2-10 19-8 13-6 11-15 27-15 25-9 16-6 11-9 17-4 11-1 2v7h2v2l7 1-3 2h-18l2-5 13-23 12-21 14-25 24-42 14-25 6-9 3-6z" fill="#DAF1FC"/>
<path transform="translate(1301,986)" d="m0 0 3 3 6 10 8 13 6 11 8 14 11 19 4 7v2l-26-1v-1l8-1 2-6-1-10-4-11v-3h-2v-5h-2l-4-9-3-5v-2h-2l-8-16-4-7z" fill="#FBFDFE"/>
<path transform="translate(1067,582)" d="m0 0 3 3 9 15 6 11 7 11 3 6 6 10 10 18 6 9 3 5-1 3-5-6-6-12-1-3-3-1-4-10-2-1-5-9-2-2-2-5-4-7-4-6v-2l-3-3v-4l-3-1-2-6-4-7-2-3z" fill="#EEF9FD"/>
<path transform="translate(997,558)" d="m0 0 1 3-10 18-7 11-4 8-5 8-6 11-7 11h-2l9-18 3-5 16-28 10-18z" fill="#E2F4FC"/>
<path transform="translate(725,1038)" d="m0 0 1 2-4 11-1 2v7h2v2l7 1-3 2h-18l2-5 11-19z" fill="#F9FCFE"/>
<path transform="translate(944,652)" d="m0 0v3l-12 22-14 24-3 1 5-10 13-23 6-11z" fill="#E1F4FC"/>
<path transform="translate(915,703)" d="m0 0v3l-14 24-7 14-2 2-2 5-4 2v-2h2l1-4 12-22 4-7 5-9z" fill="#E1F4FC"/>
<path transform="translate(848,821)" d="m0 0v3l-11 19-6 11-13 22-1-2 6-11 5-9 8-14 6-11z" fill="#E3F4FC"/>
<path transform="translate(1301,986)" d="m0 0 3 3 6 10 8 13 4 7-1 3-6-9v-2h-2l-8-16-4-7z" fill="#EBF7FD"/>
<path transform="translate(970,606)" d="m0 0 1 3-6 9-6 10h-2l9-18z" fill="#E6F6FD"/>
<path transform="translate(997,558)" d="m0 0 1 3-5 9-4 6-3 1 2-5 7-13z" fill="#EAF7FD"/>
<path transform="translate(803,899)" d="m0 0 1 2-10 19-2 3-2-1 6-12 3-4z" fill="#E8F6FD"/>
<path transform="translate(957,629)" d="m0 0v3l-11 19h-2l6-12 6-9z" fill="#E8F6FD"/>
<path transform="translate(816,876)" d="m0 0 1 2-11 20-2 1 1-5 8-14z" fill="#D5F0FB"/>
<path transform="translate(770,958)" d="m0 0 1 2-9 16h-3l9-16z" fill="#ECF8FD"/>
<path transform="translate(987,576)" d="m0 0 1 3-7 11-3 1 2-5 5-9z" fill="#DFF3FC"/>
<path transform="translate(925,685)" d="m0 0 1 2-8 14-3 1 8-16z" fill="#DDF2FC"/>
<path transform="translate(848,821)" d="m0 0v3l-9 16-2-1 3-6 6-10z" fill="#EAF7FD"/>
<path transform="translate(1109,656)" d="m0 0 4 2 6 11 1 4-5-5z" fill="#E9F7FD"/>
<path transform="translate(1127,685)" d="m0 0 4 4 6 12h-3l-7-14z" fill="#E7F6FD"/>
<path transform="translate(1101,642)" d="m0 0h2l7 12-1 2-2-4-3-1-2-5z" fill="#fff"/>
<path transform="translate(732,1025)" d="m0 0 1 2-6 11-3 1 2-5z" fill="#E5F5FD"/>
</svg>
