<?xml version="1.0" standalone="no"?>
<!DOCTYPE svg PUBLIC "-//W3C//DTD SVG 20010904//EN"
 "http://www.w3.org/TR/2001/REC-SVG-20010904/DTD/svg10.dtd">
<svg version="1.0" xmlns="http://www.w3.org/2000/svg"
 width="60" height="60" viewBox="0 0 1811.000000 2560.000000"
 preserveAspectRatio="xMidYMid meet">

<g transform="translate(0.000000,2560.000000) scale(0.100000,-0.100000)"
fill="#000000" stroke="none">
<path d="M8402 22873 c-485 -952 -568 -1731 -265 -2503 121 -306 276 -573 641
-1099 433 -624 558 -856 652 -1204 15 -58 50 -262 50 -295 0 -11 35 26 55 58
32 50 164 180 182 180 5 0 22 26 37 58 16 31 36 65 44 74 13 15 12 30 -7 124
-58 288 -133 413 -606 1004 -363 454 -514 675 -656 960 -121 244 -195 472
-235 725 -23 145 -23 456 0 605 20 129 47 253 53 246 3 -2 24 -47 47 -99 138
-305 323 -585 611 -922 125 -146 708 -738 791 -803 l42 -32 42 56 c23 31 55
84 70 117 l28 62 -242 245 c-328 333 -479 502 -639 718 -343 461 -523 882
-583 1361 -12 101 -15 187 -12 348 2 117 3 213 3 213 -1 0 -47 -89 -103 -197z"/>
<path d="M7121 20645 c97 -196 166 -391 198 -558 26 -134 29 -359 6 -469 -59
-281 -174 -481 -535 -923 -435 -533 -596 -854 -654 -1303 -41 -318 -8 -533
124 -807 101 -211 219 -376 565 -790 255 -306 321 -391 443 -575 172 -258 278
-496 334 -752 20 -93 23 -130 23 -368 -1 -275 -8 -341 -55 -510 -85 -309 -270
-546 -525 -672 -138 -69 -251 -100 -445 -122 -74 -9 -142 -16 -150 -16 -10 0
-21 -22 -33 -62 -31 -106 -94 -223 -141 -261 -22 -19 -51 -39 -63 -46 -13 -6
-23 -20 -23 -30 0 -26 -24 -43 -94 -66 -52 -18 -61 -24 -62 -45 -1 -48 -3 -50
-44 -50 -44 0 -54 -14 -16 -24 58 -14 260 -39 356 -44 336 -15 822 100 1120
265 383 212 610 513 707 938 15 67 18 124 18 350 -1 272 -9 366 -51 575 -62
310 -189 615 -370 887 -127 192 -254 344 -557 666 -458 487 -607 701 -712
1021 -57 175 -70 258 -69 466 0 182 0 186 32 280 76 223 221 456 547 885 245
322 319 421 380 513 26 40 50 71 52 69 2 -2 -10 -60 -26 -128 -106 -442 -145
-748 -145 -1129 1 -221 4 -288 22 -407 65 -421 206 -726 446 -968 141 -141
327 -261 498 -320 46 -15 51 -13 84 50 9 17 29 44 45 61 16 16 42 61 58 99 16
38 40 81 53 97 17 21 23 41 23 76 1 26 4 59 9 74 7 23 5 29 -10 34 -182 59
-394 204 -523 357 -262 313 -371 682 -340 1158 10 171 23 275 74 614 51 339
65 453 75 624 34 559 -108 939 -474 1269 -68 60 -244 192 -258 192 -3 0 35
-79 83 -175z"/>
<path d="M5127 20114 c39 -55 111 -207 136 -289 48 -154 52 -182 52 -390 -1
-223 -14 -310 -81 -533 -133 -443 -357 -862 -1009 -1887 -587 -924 -768 -1231
-1011 -1716 -476 -951 -691 -1587 -755 -2231 -16 -161 -7 -626 15 -783 51
-362 151 -721 306 -1100 65 -158 466 -955 561 -1115 108 -182 153 -326 165
-527 4 -62 9 -113 12 -113 3 0 19 12 34 27 33 31 58 24 68 -18 4 -16 20 -31
50 -46 48 -23 70 -22 133 4 l38 16 -6 56 c-15 134 -29 214 -61 326 -65 236
-97 309 -369 865 -233 475 -324 683 -409 929 -99 289 -150 514 -188 826 -17
144 -17 567 0 710 26 210 75 481 114 620 136 495 304 928 548 1415 202 403
407 754 811 1382 443 689 525 818 652 1029 180 301 288 498 428 782 116 236
117 238 121 195 11 -96 -13 -347 -52 -553 -89 -472 -213 -919 -590 -2130 -97
-311 -222 -734 -268 -910 -102 -385 -126 -545 -111 -761 62 -930 379 -1534
961 -1831 104 -53 298 -123 341 -123 24 0 64 37 118 110 15 19 48 58 75 86 27
29 65 71 84 94 19 23 81 90 137 149 l103 106 -73 12 c-269 46 -460 106 -654
203 -269 135 -445 301 -562 530 -95 186 -120 299 -128 583 -16 576 92 1157
402 2157 214 688 250 807 291 953 263 927 299 1537 122 2072 -61 187 -197 435
-323 590 -80 99 -188 215 -220 238 l-30 22 22 -31z"/>
<path d="M10142 19942 c-73 -106 -95 -134 -113 -145 -17 -10 9 -39 259 -292
153 -154 318 -325 366 -379 176 -200 350 -438 438 -601 l43 -80 3 57 c3 51 6
59 37 82 18 14 38 26 44 26 20 0 60 -67 76 -125 22 -87 55 -165 70 -165 18 0
40 -53 55 -130 7 -36 25 -92 40 -125 33 -74 44 -117 66 -270 11 -79 25 -135
41 -164 l23 -44 0 94 c-1 274 -68 594 -174 823 -20 43 -36 79 -36 81 0 9 -91
159 -95 157 -10 -5 -65 32 -65 43 0 6 5 16 10 21 6 6 8 18 4 27 -12 33 -214
300 -319 424 -151 176 -708 733 -733 733 -4 0 -22 -22 -40 -48z"/>
<path d="M11927 19491 c-12 -58 -7 -360 7 -486 27 -220 67 -418 92 -442 7 -8
14 -29 15 -46 2 -74 23 -151 49 -177 10 -10 24 -44 30 -77 7 -32 21 -68 32
-79 10 -12 28 -55 38 -96 10 -41 28 -93 40 -115 12 -24 22 -66 25 -100 4 -63
27 -133 44 -133 5 0 15 -27 22 -60 6 -33 16 -63 20 -66 5 -3 9 0 9 5 0 25 31
8 44 -24 8 -19 21 -35 29 -35 7 0 28 -22 46 -49 17 -27 84 -105 149 -173 155
-162 175 -190 167 -228 -6 -29 19 -110 65 -205 10 -22 22 -57 25 -77 9 -59
-13 -51 -101 33 -32 31 -141 164 -164 200 -14 22 -35 46 -48 55 l-22 15 21
-53 c230 -580 322 -859 384 -1162 30 -143 46 -269 55 -419 9 -152 -1 -413 -19
-502 -6 -27 -24 -138 -41 -245 -51 -321 -75 -423 -133 -560 -56 -134 -106
-206 -210 -306 l-98 -93 -1 -238 c0 -131 3 -254 6 -273 5 -22 1 -51 -8 -77
l-15 -43 42 21 c251 127 492 472 630 904 81 250 120 483 136 810 24 470 -48
1015 -204 1555 -88 300 -253 750 -365 995 -22 48 -39 90 -37 92 7 6 684 -800
947 -1127 650 -811 1044 -1404 1345 -2023 222 -457 319 -771 382 -1232 25
-188 25 -715 -1 -905 -74 -555 -230 -1002 -497 -1426 -429 -680 -572 -1075
-539 -1484 31 -376 266 -760 657 -1073 42 -34 63 -58 63 -72 0 -19 -38 -239
-55 -320 -6 -28 -3 -32 35 -54 22 -12 51 -39 64 -59 20 -32 229 -242 240 -242
6 0 42 141 65 250 25 123 48 259 65 390 l14 105 -27 25 c-15 14 -77 66 -137
115 -361 298 -570 571 -656 855 -30 102 -35 291 -10 410 43 208 122 374 392
830 422 713 558 1070 622 1640 20 182 17 818 -6 1000 -92 760 -311 1384 -724
2065 -305 503 -628 914 -1408 1790 -588 660 -798 915 -1026 1245 -285 411
-482 857 -545 1235 l-9 50 -7 -34z"/>
<path d="M8910 16569 c-14 -6 -52 -14 -85 -17 l-60 -7 -20 -60 c-26 -77 -81
-172 -112 -192 -13 -9 -31 -30 -40 -47 -8 -17 -49 -66 -91 -108 -42 -43 -74
-80 -71 -83 11 -11 217 -35 299 -34 87 0 188 16 227 37 14 8 25 26 29 48 9 47
-4 164 -19 183 -8 10 -12 58 -11 153 1 146 1 146 -46 127z"/>
<path d="M9085 16328 c-4 -10 -4 -26 0 -35 8 -17 8 -17 12 0 3 9 3 25 0 35 -4
16 -4 16 -12 0z"/>
<path d="M9085 16208 c-4 -10 -4 -26 0 -35 8 -17 8 -17 12 0 3 9 3 25 0 35 -4
16 -4 16 -12 0z"/>
<path d="M10892 14492 c-12 -22 -31 -44 -41 -47 -11 -3 -25 -12 -31 -21 -10
-11 -9 -18 5 -34 13 -15 21 -53 31 -157 7 -76 25 -182 39 -237 14 -54 25 -110
25 -123 0 -13 5 -34 11 -45 13 -24 34 -192 44 -348 4 -58 11 -112 16 -121 10
-20 114 -87 180 -117 106 -49 216 -83 309 -97 25 -3 90 -15 145 -25 184 -34
186 -34 179 -13 -4 10 -17 32 -29 48 -37 51 -95 168 -95 192 0 12 11 57 25
100 14 45 25 102 25 134 l0 57 -77 17 c-43 9 -96 23 -118 30 -297 98 -500 336
-590 692 -13 54 -26 111 -27 127 l-3 29 -23 -41z"/>
<path d="M12023 13648 l-61 -10 18 -31 c23 -39 58 -156 76 -257 9 -49 21 -80
33 -90 18 -14 51 -123 51 -168 0 -18 6 -22 34 -22 l34 0 4 88 c3 58 0 98 -9
121 -7 18 -13 46 -13 62 0 16 -15 61 -34 101 -39 85 -70 184 -62 204 3 8 2 13
-2 13 -4 -1 -35 -6 -69 -11z"/>
<path d="M12284 13175 c-7 -19 -14 -46 -14 -60 0 -25 2 -26 33 -20 17 4 33 8
34 9 5 4 -27 106 -33 106 -3 0 -12 -16 -20 -35z"/>
<path d="M11888 13073 c7 -3 16 -2 19 1 4 3 -2 6 -13 5 -11 0 -14 -3 -6 -6z"/>
<path d="M11933 13073 c9 -2 23 -2 30 0 6 3 -1 5 -18 5 -16 0 -22 -2 -12 -5z"/>
<path d="M4709 9823 c-35 -89 -142 -426 -167 -528 -141 -563 -145 -1046 -12
-1431 51 -147 151 -339 239 -455 91 -121 261 -287 380 -373 413 -296 990 -466
1582 -466 720 0 1286 271 1621 775 108 162 238 455 278 623 12 51 11 56 -16
105 -144 268 -339 523 -570 747 -149 144 -251 227 -429 345 -677 452 -1590
685 -2688 685 l-207 0 -11 -27z m706 -273 c668 -52 1138 -155 1610 -357 413
-176 818 -476 1078 -798 79 -99 115 -151 215 -313 l52 -82 -18 -48 c-15 -40
-22 -47 -47 -50 -17 -2 -43 -16 -60 -32 -16 -15 -46 -33 -66 -39 -32 -10 -39
-20 -75 -101 -21 -50 -52 -107 -68 -126 -28 -34 -31 -35 -80 -31 -28 3 -67 9
-85 13 -31 6 -38 3 -62 -26 l-28 -33 29 -28 c39 -40 72 -112 68 -151 -2 -25 2
-34 20 -44 l23 -11 -34 -30 c-109 -96 -328 -215 -482 -263 -146 -45 -296 -71
-452 -77 l-153 -6 22 54 c11 30 30 77 41 104 10 28 34 75 53 105 41 68 49 113
35 215 -19 134 -57 179 -131 153 -21 -7 -50 -5 -107 6 l-78 17 -61 -31 c-69
-34 -79 -49 -95 -153 -6 -40 -20 -88 -31 -107 -22 -39 -48 -183 -48 -272 0
-46 -3 -58 -16 -58 -50 0 -361 78 -447 112 l-28 11 7 86 c4 59 13 97 26 121
12 19 34 98 50 175 34 161 39 275 13 345 -9 25 -20 92 -25 149 -5 57 -12 106
-14 108 -5 5 -27 -11 -54 -39 -19 -21 -52 -24 -53 -5 0 6 -5 0 -10 -15 -7 -17
-16 -25 -27 -23 -10 2 -26 -3 -37 -11 -10 -8 -14 -14 -8 -14 7 0 14 4 18 10
11 18 35 -2 35 -31 0 -23 -5 -29 -21 -29 -24 0 -49 22 -49 43 0 26 -26 38 -69
31 -49 -8 -81 -42 -81 -86 0 -17 -10 -47 -21 -68 -17 -30 -29 -39 -56 -42 -19
-2 -42 2 -52 9 -10 7 -21 10 -25 8 -3 -3 -2 1 4 7 5 7 10 26 10 43 0 55 30
128 66 160 37 32 38 39 35 160 -1 68 -16 115 -28 88 -2 -7 -13 -13 -22 -13
-12 0 -17 -7 -16 -22 1 -13 -3 -27 -9 -31 -8 -6 -8 -10 0 -13 7 -3 3 -21 -12
-52 -13 -26 -24 -53 -24 -59 0 -7 -5 -13 -10 -13 -6 0 -30 -18 -54 -40 -47
-44 -53 -46 -91 -28 -50 23 -55 127 -10 243 14 35 21 71 18 87 -3 16 2 39 13
57 l18 31 29 -50 c25 -44 32 -50 62 -50 22 0 37 6 44 17 5 10 15 18 23 19 7 0
25 2 39 2 20 2 31 11 42 35 14 29 14 40 0 112 -28 145 -75 269 -129 344 -21
30 -48 75 -59 101 -26 60 -44 83 -77 97 -15 7 -35 25 -44 40 -21 33 -55 73
-63 73 -3 0 -17 -20 -29 -44 -27 -49 -39 -56 -131 -63 -67 -5 -106 -24 -117
-56 -7 -22 -87 -61 -92 -46 -2 5 3 40 11 77 9 37 25 110 37 162 12 52 44 164
72 249 l50 153 136 -6 c76 -4 196 -11 267 -16z m-549 -1096 c3 -17 17 -39 32
-50 47 -34 61 -52 72 -93 5 -21 31 -68 55 -103 60 -83 82 -131 95 -201 9 -45
20 -67 50 -99 l39 -40 -22 -18 c-19 -16 -22 -28 -23 -108 l-1 -90 51 -6 c28
-3 68 -6 89 -6 20 0 37 -4 37 -10 0 -5 7 -10 15 -10 9 0 18 -7 21 -15 4 -8 11
-12 18 -8 6 4 16 8 21 8 6 0 26 8 45 17 74 34 155 45 189 24 10 -7 12 -5 6 5
-5 8 -5 11 0 7 4 -4 16 -3 26 3 13 6 19 6 19 -1 0 -5 -7 -10 -15 -10 -10 0
-15 -10 -15 -32 0 -47 -24 -120 -43 -132 -11 -7 -34 -6 -74 3 -32 7 -78 16
-103 20 -39 5 -45 10 -54 39 -12 42 -52 46 -62 6 -4 -14 -25 -39 -47 -55 l-40
-29 -26 22 c-58 53 -71 72 -65 100 6 31 -21 64 -66 79 -30 11 -98 104 -138
189 -89 188 -142 411 -142 595 l1 110 24 -40 c14 -22 28 -54 31 -71z m951
-586 c-3 -8 -6 -5 -6 6 -1 11 2 17 5 13 3 -3 4 -12 1 -19z m-37 -80 c-1 -60
-19 -95 -39 -75 -9 9 -14 9 -21 -3 -9 -13 -10 -13 -10 1 0 8 6 21 13 28 10 11
9 12 -1 7 -21 -12 -9 40 16 69 32 37 42 31 42 -27z"/>
<path d="M5490 8300 c-6 -11 -7 -20 -2 -20 6 0 12 9 15 20 3 11 3 20 1 20 -2
0 -8 -9 -14 -20z"/>
<path d="M7178 8162 c-4 -12 -2 -25 4 -28 15 -10 19 1 10 26 l-9 24 -5 -22z"/>
<path d="M5807 8060 c-3 -11 -1 -20 3 -20 5 0 15 -3 23 -6 11 -4 13 1 10 20
-6 31 -28 34 -36 6z"/>
<path d="M5810 8023 c0 -6 8 -17 18 -24 16 -13 16 -13 2 6 -8 11 -16 22 -17
24 -2 2 -3 0 -3 -6z"/>
<path d="M12765 9839 c-198 -12 -481 -45 -684 -79 -1019 -175 -1785 -596
-2305 -1269 -75 -96 -211 -303 -264 -401 l-40 -75 37 -120 c209 -672 652
-1103 1291 -1258 219 -53 305 -62 595 -61 228 0 293 4 415 23 387 59 719 169
981 323 520 307 806 737 879 1323 15 117 15 401 0 540 -28 259 -96 553 -199
855 -32 96 -62 183 -66 193 -7 16 -27 17 -254 16 -135 -1 -309 -6 -386 -10z
m394 -426 c91 -281 137 -507 148 -733 l6 -135 -22 19 c-11 11 -21 27 -21 36 0
10 -7 23 -15 30 -8 7 -15 23 -15 36 0 12 -4 25 -9 28 -10 7 -61 148 -61 171 0
9 -11 31 -26 47 -14 17 -36 53 -50 80 -14 27 -33 57 -44 68 -10 10 -27 43 -37
74 -10 31 -21 56 -25 56 -14 0 -26 -82 -36 -252 -9 -153 -19 -173 -73 -142
-23 13 -37 33 -48 65 -26 76 -61 100 -91 64 -25 -30 12 -185 50 -212 11 -8 20
-20 20 -27 0 -7 11 -23 25 -36 16 -15 25 -34 25 -55 0 -29 3 -32 33 -33 25 -1
39 6 63 34 l31 35 12 -43 c15 -49 44 -109 63 -130 7 -7 20 -27 28 -43 16 -31
36 -41 58 -27 7 5 17 40 23 78 14 92 17 103 29 84 13 -21 12 -144 -1 -174 -9
-20 -7 -37 14 -93 49 -131 51 -159 23 -248 -38 -120 -127 -287 -211 -400 -179
-240 -486 -452 -830 -571 -287 -101 -695 -164 -945 -147 -88 6 -100 12 -100
51 0 17 -6 22 -24 22 -13 0 -31 3 -39 6 -8 3 -31 -8 -51 -27 l-37 -32 -97 18
c-219 40 -455 140 -613 259 -97 74 -263 243 -296 303 l-23 40 26 29 c32 38 84
127 84 146 0 9 7 21 15 28 8 7 15 20 15 29 0 9 20 36 44 60 33 33 48 57 59
100 30 112 30 116 -9 150 -19 17 -42 31 -51 31 -8 0 -47 -11 -86 -25 -96 -35
-141 -38 -194 -12 -50 24 -53 33 -15 49 15 6 52 22 82 36 30 13 82 31 115 38
51 13 69 24 117 71 48 47 59 66 69 110 7 29 16 53 21 53 4 0 8 -3 8 -8 0 -4
14 -13 30 -20 27 -12 34 -12 68 9 75 45 142 79 157 79 26 0 128 60 170 100 22
21 50 41 62 44 12 4 44 29 72 55 42 40 52 56 57 94 4 24 2 53 -4 62 -7 13 -5
28 4 51 8 19 16 50 19 71 13 105 16 113 53 136 94 57 327 153 512 210 266 83
494 132 797 172 227 30 259 33 443 44 102 7 203 13 225 15 22 1 70 3 106 4
l66 2 52 -157z"/>
<path d="M11340 8980 c0 -16 5 -30 10 -30 6 0 10 14 10 30 0 17 -4 30 -10 30
-5 0 -10 -13 -10 -30z"/>
<path d="M12706 8579 c-18 -64 -25 -102 -25 -148 0 -30 -5 -59 -10 -64 -17
-17 -13 -45 14 -128 24 -76 111 -249 124 -249 4 0 15 -13 24 -30 17 -28 19
-29 42 -14 13 8 30 30 38 47 9 18 27 49 40 69 41 59 42 73 8 138 -18 35 -31
75 -31 97 0 22 -11 54 -25 78 -16 25 -25 55 -25 80 0 58 -10 85 -30 85 -10 0
-23 6 -29 14 -6 7 -26 16 -44 19 -17 3 -40 8 -49 12 -11 4 -19 2 -22 -6z"/>
<path d="M3710 9019 c-26 -11 -153 -36 -226 -46 -30 -3 -50 0 -70 13 -20 13
-29 15 -31 7 -3 -7 -28 -51 -56 -98 -141 -232 -325 -423 -550 -569 -87 -57
-87 -57 -82 -94 3 -20 10 -80 15 -132 73 -640 294 -1219 644 -1684 316 -419
742 -756 1303 -1028 90 -44 169 -78 177 -75 7 3 31 37 55 76 103 174 236 307
376 377 66 33 89 50 87 62 -2 9 -14 62 -27 117 -13 55 -27 124 -31 153 -4 28
-9 52 -11 52 -3 0 -27 -11 -54 -24 -95 -48 -175 -110 -287 -223 l-114 -113
-126 60 c-446 214 -818 533 -1083 929 -228 342 -395 777 -464 1211 -9 58 -21
130 -26 160 l-9 54 47 41 c255 213 466 467 557 668 55 119 53 133 -14 106z"/>
<path d="M14875 7488 c-47 -165 -221 -511 -353 -706 -116 -171 -116 -171 -135
-247 -9 -33 -32 -103 -53 -155 -44 -114 -50 -186 -19 -246 24 -47 32 -54 67
-54 14 0 41 -8 58 -17 l31 -18 90 93 c143 149 303 358 399 522 l42 73 -5 176
c-7 209 -29 329 -69 381 -29 38 -55 152 -44 195 8 31 0 33 -9 3z"/>
<path d="M8659 6403 c-222 -329 -537 -796 -701 -1038 -163 -241 -296 -440
-294 -442 1 -1 316 134 700 302 l698 304 182 -78 c99 -43 410 -179 690 -300
279 -122 511 -220 513 -217 3 2 -83 134 -189 293 -107 158 -378 563 -603 898
-414 619 -572 854 -585 868 -4 4 -188 -261 -411 -590z m575 -46 c139 -184 140
-186 137 -234 -2 -44 1 -52 37 -88 70 -73 107 -103 143 -118 27 -11 64 -51
145 -153 200 -256 407 -519 423 -538 24 -29 17 -25 -339 229 -382 272 -690
489 -707 499 -7 4 -233 -152 -538 -369 -290 -207 -528 -375 -530 -373 -2 2 80
109 182 238 234 297 516 657 772 988 94 121 104 132 119 118 10 -8 80 -98 156
-199z"/>
<path d="M13990 6194 c-25 -20 -88 -68 -140 -107 -52 -38 -99 -73 -104 -78 -9
-8 82 -29 149 -33 54 -4 97 19 121 65 14 28 34 189 23 189 -2 0 -24 -16 -49
-36z"/>
<path d="M6060 5987 c0 -7 -11 -29 -25 -49 -13 -20 -29 -57 -35 -83 -6 -26
-21 -73 -35 -104 -13 -33 -27 -90 -30 -132 -7 -74 -7 -74 42 -174 27 -55 57
-120 67 -145 l18 -45 18 55 c39 122 90 288 100 330 6 25 20 73 32 107 l22 63
-34 47 c-37 53 -120 143 -132 143 -4 0 -8 -6 -8 -13z"/>
<path d="M13428 5827 c-54 -29 -60 -35 -84 -98 -24 -60 -26 -77 -22 -156 4
-60 12 -103 27 -138 12 -27 23 -61 24 -76 l2 -27 51 23 c28 12 73 34 100 47
l49 24 -3 75 c-2 41 -7 101 -12 134 -5 33 -12 86 -15 118 -6 56 -13 64 -49 58
-4 -1 -5 10 -2 24 8 31 5 30 -66 -8z"/>
<path d="M5802 4498 c-8 -23 -27 -41 -61 -60 -28 -15 -65 -47 -83 -72 -18 -24
-50 -55 -71 -68 -20 -13 -48 -41 -61 -63 -13 -22 -33 -49 -45 -59 -12 -11 -21
-25 -21 -33 0 -18 74 -165 113 -225 l31 -47 53 107 c29 59 53 113 53 121 0 8
15 46 34 85 36 73 79 214 91 299 6 37 4 47 -7 47 -8 0 -19 -15 -26 -32z"/>
<path d="M6072 3725 c-22 -11 -54 -38 -73 -60 -43 -51 -60 -64 -81 -65 -9 0
-29 -10 -43 -23 l-27 -23 81 -77 c84 -80 220 -176 326 -229 83 -42 185 -80
185 -68 0 40 -53 255 -72 290 -5 8 -18 42 -31 75 -29 79 -31 82 -107 140 -36
27 -67 53 -70 57 -9 12 -47 5 -88 -17z"/>
<path d="M10072 3030 c-30 -7 -68 -43 -84 -79 -4 -9 -7 -39 -7 -67 -1 -42 4
-57 31 -92 18 -23 36 -42 40 -42 18 0 112 53 134 75 27 27 30 60 12 146 -14
70 -36 80 -126 59z"/>
<path d="M8403 2943 c-8 -18 -34 -39 -69 -58 -89 -47 -122 -126 -71 -172 34
-32 67 -34 166 -13 108 23 123 30 152 72 13 18 26 35 30 38 3 3 16 24 28 47
l21 43 -27 6 c-16 3 -70 19 -121 35 -51 16 -94 29 -95 29 -1 0 -8 -12 -14 -27z"/>
</g>
</svg>
